<svg xmlns="http://www.w3.org/2000/svg" viewBox="0 0 255.01 169.04"><g id="Sign"><path d="M175.48,135.8l.07.07-22.66,22.66a4.63,4.63,0,1,1-6.55-6.55l16.18-16.18-16.18-16.18a4.63,4.63,0,0,1,6.55-6.55l22.66,22.66Z" transform="translate(-0.71 -0.6)" style="fill:#d6ff1f;stroke:#ff5ff8;stroke-miterlimit:10"/><path d="M78.69,135.8l-.07.07,22.66,22.66a4.63,4.63,0,1,0,6.55-6.55L91.65,135.8l16.18-16.18a4.63,4.63,0,1,0-6.55-6.55L78.62,135.73Z" transform="translate(-0.71 -0.6)" style="fill:#d6ff1f;stroke:#ff5ff8;stroke-miterlimit:10"/><rect x="121.67" y="101.01" width="10.83" height="69.59" rx="5.41" transform="translate(47.96 -33.45) rotate(18.16)" style="fill:#d6ff1f;stroke:#ff5ff8;stroke-miterlimit:10"/></g><g id="E"><path d="M180.51,1.1h8.29a6,6,0,0,1,6,6V70.66a6,6,0,0,1-6,6h-8.29a0,0,0,0,1,0,0V1.1A0,0,0,0,1,180.51,1.1Z" transform="translate(374.61 77.18) rotate(-180)" style="fill:#06e900;stroke:#ff5ff8;stroke-miterlimit:10"/><rect x="197.32" y="0.5" width="57.19" height="13.23" rx="5.45" style="fill:#06e900;stroke:#ff5ff8;stroke-miterlimit:10"/><rect x="197.32" y="65.05" width="57.19" height="13.23" rx="5.45" style="fill:#06e900;stroke:#ff5ff8;stroke-miterlimit:10"/><rect x="197.32" y="31.67" width="57.19" height="13.23" rx="5.45" style="fill:#06e900;stroke:#ff5ff8;stroke-miterlimit:10"/></g><g id="D"><path d="M168.68,39.15a37.77,37.77,0,0,1-38,37.52l.07-11.06a26.72,26.72,0,0,0,.37-53.44l.07-11.07A37.78,37.78,0,0,1,168.68,39.15Z" transform="translate(-0.71 -0.6)" style="fill:#ff1571;stroke:#ff5ff8;stroke-miterlimit:10"/></g><g id="O"><path d="M86.24,2.5h-.82a36.39,36.39,0,0,0,0,72.77h.82a36.39,36.39,0,0,0,0-72.77Zm-.41,62.12a25.73,25.73,0,1,1,25.32-25.73A25.74,25.74,0,0,1,85.83,64.62Z" transform="translate(-0.71 -0.6)" style="fill:#2900f4;stroke:#ff5ff8;stroke-miterlimit:10"/><path d="M86.24,2.49h0Z" transform="translate(-0.71 -0.6)" style="fill:#2900f4;stroke:#ff5ff8;stroke-miterlimit:10"/><path d="M86.24,75.27h0Z" transform="translate(-0.71 -0.6)" style="fill:#2900f4;stroke:#ff5ff8;stroke-miterlimit:10"/><path d="M85.83,2.49h0Z" transform="translate(-0.71 -0.6)" style="fill:#2900f4;stroke:#ff5ff8;stroke-miterlimit:10"/><path d="M85.83,75.28h0Z" transform="translate(-0.71 -0.6)" style="fill:#2900f4;stroke:#ff5ff8;stroke-miterlimit:10"/></g><g id="C"><path d="M1.21,39.93A37.77,37.77,0,0,0,38.92,77.78l0-11.06A26.72,26.72,0,0,1,39,13.28l0-11.07A37.78,37.78,0,0,0,1.21,39.93Z" transform="translate(-0.71 -0.6)" style="fill:#ff5ff8;stroke:#ff5ff8;stroke-miterlimit:10"/></g></svg>